<?xml version="1.0" encoding="utf-8"?>
<!-- Generator: Adobe Illustrator 25.2.0, SVG Export Plug-In . SVG Version: 6.00 Build 0)  -->
<svg version="1.1" id="Layer_1" xmlns="http://www.w3.org/2000/svg" xmlns:xlink="http://www.w3.org/1999/xlink" x="0px" y="0px"
	 viewBox="0 0 32 32" style="enable-background:new 0 0 32 32;" xml:space="preserve">
<style type="text/css">
	.st0{fill:#0C0B0B;}
	.st1{fill:#050404;}
	.st2{fill:#090908;}
</style>
<g>
	<path class="st1" d="M7.5,31.5c-0.3-0.2-0.7-0.2-1-0.5c-0.8-0.6-1.2-1.4-1.3-2.4c-0.1-1.7-0.3-3.3-0.4-5c-0.1-1.6-0.3-3.2-0.4-4.8
		c-0.1-1.6-0.3-3.2-0.4-4.8c-0.1-1.3-0.2-2.7-0.3-4c0-0.2,0-0.4-0.1-0.6c0-0.2-0.1-0.2-0.2-0.3c-1.4-0.6-2-2-1.5-3.4
		c0.4-1.1,1.4-1.8,2.6-1.8c1.4,0,2.8,0,4.2,0c0.3,0,0.3-0.1,0.3-0.3c0-0.7,0-1.3,0.3-1.9c0.5-0.9,1.3-1.4,2.3-1.4c2.5,0,5,0,7.6,0
		c1.4,0,2.6,1.2,2.6,2.6c0,0.3,0,0.5,0,0.8c0,0.2,0.1,0.2,0.3,0.2c1.4,0,2.8,0,4.3,0c1.7,0,2.9,1.3,2.8,2.9
		c-0.1,1.1-0.6,1.9-1.6,2.3c-0.2,0.1-0.2,0.2-0.3,0.4c-0.2,2.1-0.4,4.2-0.5,6.2c-0.2,1.8-0.3,3.7-0.4,5.5c-0.2,1.8-0.3,3.7-0.5,5.5
		c-0.1,0.8-0.1,1.6-0.2,2.4c-0.2,1.1-1.1,1.9-2.2,2.1c0,0,0,0-0.1,0.1C18.1,31.5,12.8,31.5,7.5,31.5z M15.5,9.4c-1.4,0-2.8,0-4.1,0
		c-1.8,0-3.7,0-5.5,0c-0.2,0-0.3,0-0.3,0.3c0.1,0.9,0.1,1.8,0.2,2.6c0.1,1.4,0.2,2.8,0.3,4.2c0.1,1.3,0.2,2.6,0.3,3.9
		c0.1,1.4,0.2,2.7,0.3,4.1c0.1,1.4,0.2,2.7,0.3,4.1c0.1,0.8,0.4,1,1.2,1c4.8,0,9.6,0,14.4,0c0.1,0,0.2,0,0.3,0
		c0.4,0,0.8-0.4,0.8-0.8c0-0.2,0-0.5,0.1-0.7c0.1-1.3,0.2-2.6,0.3-4c0.1-1.6,0.3-3.2,0.4-4.8c0.1-1.6,0.3-3.2,0.4-4.8
		c0.1-1.7,0.3-3.3,0.4-5c0-0.3,0-0.3-0.3-0.3C21.9,9.4,18.7,9.4,15.5,9.4z M15.5,5.8c-3.6,0-7.1,0-10.7,0c-0.2,0-0.3,0-0.5,0
		C4,5.9,3.7,6.2,3.7,6.5C3.6,6.8,3.7,7.1,4,7.4c0.2,0.2,0.5,0.2,0.8,0.2c7.2,0,14.4,0,21.6,0c0.2,0,0.3,0,0.4-0.1
		c0.6-0.2,0.8-0.9,0.4-1.4c-0.2-0.3-0.6-0.4-0.9-0.4C22.7,5.8,19.1,5.8,15.5,5.8z M15.5,3.9c1.3,0,2.5,0,3.8,0c0.3,0,0.6,0.1,0.8,0
		c0.2-0.2,0.1-0.5,0.1-0.8c0-0.6-0.4-1-0.9-1c-2.4,0-4.8,0-7.2,0c-0.6,0-0.9,0.4-0.9,0.9c0,0.2,0,0.4,0,0.6c0,0.2,0.1,0.2,0.3,0.2
		C12.6,3.9,14.1,3.9,15.5,3.9z"/>
	<path class="st2" d="M11.9,26.6c0,0.8-0.3,1.2-0.9,1.2c-0.5,0-0.8-0.4-0.9-0.8c-0.1-1.3-0.2-2.5-0.2-3.8c-0.1-1.5-0.2-3-0.3-4.6
		c-0.1-1.4-0.2-2.9-0.3-4.3c0-0.7-0.1-1.4-0.1-2.1c0-0.6,0.3-1,0.9-1c0.5,0,0.9,0.4,1,0.9c0.2,2.6,0.3,5.3,0.5,7.9
		C11.6,22.3,11.7,24.5,11.9,26.6z"/>
	<path class="st2" d="M21.9,12.4c-0.1,1.8-0.2,3.7-0.3,5.5c-0.1,1.4-0.2,2.9-0.3,4.3c-0.1,1.6-0.2,3.2-0.3,4.9
		c0,0.5-0.5,0.8-0.9,0.8c-0.5,0-0.9-0.4-0.9-0.9c0-0.9,0.1-1.8,0.1-2.6c0.1-1.1,0.1-2.3,0.2-3.4c0.1-1.5,0.2-3.1,0.3-4.6
		c0.1-1.4,0.2-2.7,0.3-4.1c0-0.6,0.4-1,1-1C21.6,11.3,21.9,11.7,21.9,12.4C21.9,12.3,21.9,12.4,21.9,12.4z"/>
	<path class="st1" d="M14.6,19.5c0-2.4,0-4.9,0-7.3c0-0.5,0.3-0.9,0.8-0.9c0.5-0.1,0.9,0.2,1,0.6c0,0.1,0,0.2,0,0.3
		c0,4.9,0,9.7,0,14.6c0,0.6-0.4,1-0.9,1c-0.5,0-0.9-0.4-0.9-1C14.6,24.4,14.6,21.9,14.6,19.5z"/>
</g>
</svg>
