<?xml version="1.0" encoding="utf-8"?>
<!-- Generator: Adobe Illustrator 25.2.0, SVG Export Plug-In . SVG Version: 6.00 Build 0)  -->
<svg version="1.1" id="Layer_1" xmlns="http://www.w3.org/2000/svg" xmlns:xlink="http://www.w3.org/1999/xlink" x="0px" y="0px"
	 viewBox="0 0 32 32" style="enable-background:new 0 0 32 32;" xml:space="preserve">
<style type="text/css">
	.st0{fill:#0C0B0B;}
	.st1{fill:#050404;}
	.st2{fill:#090908;}
</style>
<g>
	<path class="st0" d="M31.7,5.4c-0.1,0.1-0.1,0.3-0.1,0.4c-0.2,0.6-0.5,1.1-0.9,1.5C26,12,21.4,16.6,16.8,21.2
		c-0.2,0.2-0.4,0.3-0.6,0.4c-2.1,0.6-4.2,1.2-6.4,1.8c-0.7,0.2-1.2-0.3-1-1c0.6-2.1,1.2-4.2,1.7-6.4c0.1-0.3,0.2-0.5,0.4-0.7
		c4.6-4.6,9.1-9.1,13.7-13.7c1.5-1.5,3.7-1.6,5.2,0c0.4,0.4,0.8,0.7,1.1,1.1c0.3,0.4,0.6,0.9,0.7,1.5c0,0,0,0.1,0.1,0.1
		C31.7,4.6,31.7,5,31.7,5.4z M27.6,8.1C27.6,8.1,27.5,8,27.5,8c-1.1-1.1-2.2-2.2-3.3-3.3c-0.2-0.2-0.2-0.1-0.4,0
		c-3.7,3.7-7.4,7.4-11.1,11c-0.2,0.2-0.1,0.2,0,0.4c1.1,1.1,2.2,2.2,3.3,3.3c0.2,0.2,0.3,0.2,0.4,0c2.4-2.4,4.8-4.9,7.3-7.3
		c1.2-1.2,2.5-2.5,3.7-3.7C27.5,8.3,27.6,8.2,27.6,8.1z M28.7,6.9c0.3-0.3,0.7-0.6,1-0.9c0.6-0.7,0.6-1.7,0-2.4
		c-0.3-0.4-0.7-0.8-1.1-1.1C28.1,2,27.4,1.8,26.7,2c-0.7,0.2-1.1,0.8-1.6,1.3c-0.1,0.1,0,0.1,0,0.2C26.4,4.6,27.6,5.8,28.7,6.9z
		 M11.8,17.4c-0.3,1.2-0.7,2.5-1,3.7c-0.1,0.2,0,0.3,0.2,0.2c0.8-0.2,1.6-0.5,2.5-0.7c0.4-0.1,0.8-0.2,1.3-0.3
		C13.7,19.3,12.7,18.4,11.8,17.4z"/>
	<path class="st0" d="M15.2,31.7c-3.6,0-7.2,0-10.8,0c-1.1,0-2.1-0.3-2.9-1.1c-0.8-0.7-1.2-1.7-1.2-2.7c0-6.9,0-13.8,0-20.6
		c0-2,1.6-3.6,3.6-3.8c0.3,0,0.6,0,0.9,0c2.1,0,4.2,0,6.2,0c0.3,0,0.6,0,0.8,0.3c0.2,0.2,0.3,0.5,0.2,0.8C11.7,4.8,11.5,5,11.1,5
		C8.9,5,6.6,5,4.4,5C3.9,5,3.4,5,3,5.3c-0.7,0.4-1.1,1-1.1,1.8c0,0.1,0,0.3,0,0.4c0,6.7,0,13.3,0,20c0,0.9,0.3,1.6,0.9,2.1
		c0.5,0.4,1,0.5,1.5,0.5c7.2,0,14.5,0,21.7,0c1.2,0,2.1-0.7,2.4-1.8c0.1-0.3,0.1-0.5,0.1-0.8c0-2.2,0-4.4,0-6.6c0-0.6,0.5-1,0.9-0.9
		c0.3,0.1,0.6,0.3,0.6,0.6c0,0.1,0,0.2,0,0.3c0,2.2,0,4.4,0,6.7c0,1.8-1,3.3-2.7,3.9c-0.5,0.2-1,0.2-1.5,0.2
		C22.3,31.7,18.8,31.7,15.2,31.7z"/>
</g>
</svg>
