<svg width="134" height="115" viewBox="0 0 134 115" fill="none" xmlns="http://www.w3.org/2000/svg">
<path fill-rule="evenodd" clip-rule="evenodd" d="M133.198 113.315C133.288 113.285 133.378 113.155 133.308 113.065H133.298C133.103 112.97 132.878 112.949 132.649 112.927C132.372 112.901 132.089 112.874 131.848 112.715C130.474 111.735 130.47 109.91 130.467 108.245C130.466 107.752 130.464 107.274 130.428 106.835V97.6451C130.608 89.8051 119.718 87.2951 113.478 93.7651V81.3451H107.708V81.8851H110.938V113.125H107.708V113.665H116.708V113.125H113.478V97.0851C113.478 94.3151 117.768 90.9951 120.868 90.6751C127.198 90.0351 127.888 95.7451 127.888 98.1951V108.905C127.818 110.945 128.438 113.925 131.028 113.765C131.778 113.755 132.498 113.565 133.198 113.315ZM99.308 107.945C99.238 110.935 99.988 114.365 103.628 112.075C103.673 112.056 103.722 112.024 103.771 111.992C103.908 111.902 104.05 111.809 104.138 111.985C101.278 115.105 96.648 113.515 96.768 109.605V91.1251H92.568V90.5851H96.768V86.1951H99.308V90.5851H105.728V91.1251H99.308V107.945ZM86.938 94.645C86.568 96.445 88.318 97.555 89.798 96.865C90.588 96.445 91.468 94.785 90.588 93.355C89.568 91.645 87.348 89.785 84.028 89.785C81.668 89.785 79.358 90.855 77.698 92.475V90.585H71.928V91.125H75.158V113.125H71.928V113.665H81.118V113.125H77.698V96.585C77.698 92.295 80.338 90.305 84.028 90.305C86.238 90.305 87.628 91.365 88.228 92.845C87.488 93.215 87.078 93.955 86.938 94.645ZM36.9347 103.091C39.9222 104.32 42.7497 105.484 43.458 107.395L43.488 107.415C44.728 110.835 40.948 113.715 36.328 113.535C32.258 113.355 28.748 109.815 28.288 106.215H28.058V113.235H28.238C28.558 112.265 29.478 111.615 30.498 112.125C31.878 112.955 33.908 113.875 36.268 114.015C43.288 114.425 47.528 110.455 45.548 106.025C44.2885 103.224 40.827 101.901 37.5353 100.642C33.8227 99.2229 30.3261 97.886 30.448 94.6051C30.538 92.2051 33.438 90.2251 37.098 90.8151C40.678 91.3851 43.328 93.5951 43.838 97.2851H44.018V90.8651H43.838C43.558 91.8351 42.538 92.5651 41.618 91.9751C40.208 91.0751 38.238 90.2251 36.718 90.1751C32.238 89.8951 28.868 92.2551 28.778 95.8051C28.6175 99.6692 32.9206 101.44 36.9347 103.091ZM12.908 90.165C6.29797 90.165 0.667969 95.335 0.667969 102.215C0.667969 109.095 6.29797 114.265 12.908 114.265C19.518 114.265 25.148 109.095 25.148 102.215C25.148 95.335 19.518 90.165 12.908 90.165ZM12.908 90.635C18.258 90.685 22.698 95.655 22.648 102.215C22.608 108.815 18.248 113.785 12.978 113.735C7.43797 113.695 2.93797 108.725 3.11797 102.215C3.25797 95.515 7.73797 90.585 12.908 90.635ZM69.718 99.725C69.998 99.725 70.358 99.635 70.308 99.255C69.528 92.845 64.268 90.155 60.288 90.155C53.828 90.155 48.928 94.725 48.928 101.985C48.928 109.245 53.358 114.025 59.768 114.265C63.928 114.405 67.348 112.475 69.518 109.055C69.898 108.445 69.798 108.185 69.568 108.085C69.288 107.995 69.148 108.175 68.788 108.955C67.948 110.565 66.648 111.905 64.758 112.695C59.598 115.005 52.788 111.265 51.868 103.725C51.678 102.355 51.638 101.015 51.728 99.715H69.698L69.718 99.725ZM59.858 90.725C64.238 90.725 67.418 93.495 67.968 99.245H51.778C52.298 94.265 54.998 90.725 59.858 90.725Z" fill="#323E48"/>
<path d="M92.6884 21.1251V21.7351C92.6884 21.7351 91.3184 22.0951 90.6484 22.2951C87.6884 23.1551 84.6284 24.0251 78.6084 24.0251C72.5884 24.0251 69.5084 23.1551 66.5684 22.2951C63.6384 21.4551 60.6284 20.5751 54.6784 20.5751C48.7284 20.5751 45.7084 21.4451 42.7884 22.2951C42.4884 22.3751 42.1684 22.4651 41.8384 22.5551L41.3184 22.7051V22.1251C41.7084 22.0151 42.2484 21.8651 42.6384 21.7451C45.5884 20.9051 48.6484 20.0151 54.6784 20.0151C60.7084 20.0151 63.7584 20.9051 66.7184 21.7451C69.6384 22.5851 72.6484 23.4651 78.6084 23.4651C84.5684 23.4651 87.5784 22.5951 90.4984 21.7451L92.6984 21.1251H92.6884Z" fill="#6FCFEB"/>
<path d="M41.3086 16.5751C44.0586 17.1651 47.7286 17.7751 53.7686 17.7751C61.1586 17.7751 64.9086 16.8951 68.5486 16.0351C72.1486 15.1951 75.8686 14.3151 83.1886 14.3151C86.7286 14.3151 92.6786 14.9751 92.6786 14.9751V14.4151C92.6786 14.4151 86.7186 13.7651 83.1886 13.7651C75.7986 13.7651 72.0386 14.6451 68.4086 15.5051C64.8086 16.3451 61.0886 17.2251 53.7686 17.2251C47.8186 17.2251 44.2286 16.6451 41.3086 16.0251V16.5951V16.5751Z" fill="#6FCFEB"/>
<path d="M41.3081 25.5551C41.3081 25.5551 43.1081 25.5151 43.9381 25.5151C51.7481 25.5151 55.7081 26.3951 59.5481 27.2351C63.4081 28.0851 67.4081 28.9651 75.2681 28.9651C83.1281 28.9651 87.1281 28.0851 90.9981 27.2351C91.3081 27.1651 92.6781 26.8851 92.6781 26.8851V26.2951C92.6781 26.2951 91.4181 26.5651 90.8781 26.6851C87.0381 27.5351 83.0781 28.4051 75.2681 28.4051C67.4581 28.4051 63.4981 27.5351 59.6581 26.6851C55.7881 25.8351 51.7981 24.9551 43.9281 24.9551C43.0981 24.9551 41.3081 24.9951 41.2881 24.9951V25.5551H41.3081Z" fill="#00A1E1"/>
<path d="M41.3086 8.62507C47.0086 8.38507 50.6286 7.63507 53.7686 6.97507C56.8086 6.33507 59.9486 5.67507 64.8486 5.39507C69.6486 5.67507 72.7086 6.33507 75.6686 6.97507C79.6286 7.82507 83.7286 8.70507 91.7986 8.70507C91.9786 8.70507 92.6786 8.70507 92.6786 8.70507V8.14507C92.6786 8.14507 91.9686 8.14507 91.7986 8.14507C83.7886 8.14507 79.7186 7.27507 75.7886 6.42507H75.7686C73.8486 6.00507 71.8686 5.58507 69.3886 5.25507C69.6486 5.25507 69.9186 5.25507 70.1886 5.25507C78.4086 5.25507 82.5786 6.12507 86.6086 6.97507C88.5086 7.37507 92.6886 8.07507 92.6886 8.07507V7.50507C92.6886 7.50507 88.4986 6.79507 86.7186 6.42507C82.6586 5.57507 78.4586 4.69507 70.1886 4.69507C68.2786 4.69507 66.5386 4.74507 64.8686 4.83507C63.2286 4.73507 61.5286 4.69507 59.6686 4.69507C51.5986 4.69507 47.4986 5.57507 43.5386 6.42507C42.9286 6.55507 41.3186 6.90507 41.3186 6.90507V7.45507C41.3186 7.45507 42.9586 7.12507 43.6586 6.97507C47.5886 6.13507 51.6686 5.25507 59.6686 5.25507C59.8586 5.25507 60.0386 5.25507 60.2286 5.25507C57.6786 5.58507 55.6386 6.00507 53.6586 6.42507C50.5486 7.07507 46.9586 7.82507 41.3186 8.06507V8.62507H41.3086Z" fill="#6FCFEB"/>
<path d="M92.6884 29.2151C87.6584 29.4851 84.4484 30.2051 81.6684 30.8351C77.9084 31.6851 74.0284 32.5551 66.3884 32.5551C58.7484 32.5551 54.8684 31.6851 51.0984 30.8351C48.5384 30.2551 45.5684 29.6051 41.3184 29.2951V29.8651C45.5684 30.1751 48.4684 30.8151 50.9784 31.3851C54.7684 32.2351 58.6784 33.1151 66.3784 33.1151C74.0784 33.1151 77.9984 32.2351 81.7884 31.3851C84.5584 30.7651 87.7484 30.0551 92.6884 29.7851V29.2251V29.2151Z" fill="#00A1E1"/>
<path d="M41.3086 33.8851C48.1486 33.8851 51.9286 34.8351 54.8586 35.5951H54.8686C58.1586 36.4551 61.5586 37.3351 68.2586 37.3351C74.9586 37.3351 78.3586 36.4551 81.6586 35.5951C84.3586 34.8951 87.4186 34.1051 92.6786 33.9251V33.3551C87.3586 33.5351 84.2586 34.3351 81.5186 35.0551C78.2586 35.8951 74.8886 36.7751 68.2686 36.7751C61.6486 36.7751 58.2786 35.9051 55.0086 35.0551C52.0286 34.2851 48.1986 33.3151 41.3086 33.3151V33.8851Z" fill="#00A1E1"/>
<path d="M92.6884 64.0251C89.2084 64.2251 86.7284 64.7151 85.2184 65.0751C81.9384 64.2751 78.2284 63.3851 71.0484 63.3851C63.8684 63.3851 60.2084 64.2551 56.6584 65.1151C56.2384 65.2251 55.8284 65.3151 55.3984 65.4251C52.4384 64.6651 49.0184 63.9251 42.9384 63.9251C42.4684 63.9251 41.3184 63.9451 41.3184 63.9451V64.5051C41.3184 64.5051 42.4684 64.4751 42.9384 64.4751C48.0084 64.4751 51.1284 64.9551 54.1884 65.6951C51.4284 66.2851 48.0684 66.8351 42.4384 66.8351H41.3184V67.3951H42.4384C48.8684 67.3951 52.4984 66.6751 55.3984 66.0051C55.6584 66.0651 55.9284 66.1251 56.1784 66.2051C59.4684 67.0451 62.8684 67.9351 69.5784 67.9351C76.2884 67.9351 79.6884 67.0451 82.9784 66.2051C83.7884 65.9851 84.4784 65.8151 85.2084 65.6451L85.2884 65.6651C87.3184 66.1451 89.6784 66.7251 92.6784 67.0551V66.4751C90.2584 66.2051 88.2284 65.7851 86.4484 65.3651C88.3784 64.9751 90.4584 64.7251 92.6784 64.5851V64.0251H92.6884ZM82.8484 65.6651C79.5884 66.5051 76.2184 67.3851 69.5884 67.3851C62.9584 67.3851 59.7484 66.5451 56.5784 65.7351L56.8084 65.6751C60.3184 64.8351 63.9384 63.9551 71.0484 63.9551C77.3484 63.9551 80.9284 64.6451 84.0084 65.3551C83.6184 65.4651 83.2284 65.5551 82.8384 65.6651" fill="#CC9F75"/>
<path d="M41.3086 59.9051C41.3086 59.9051 43.8186 60.0251 45.0986 60.0251C51.4086 60.0251 54.6286 59.1551 57.7286 58.3051H57.7786C60.8586 57.4451 64.0386 56.5751 70.2986 56.5751C76.5586 56.5751 79.7486 57.4451 82.8286 58.2951C85.2986 58.9751 88.1486 59.7451 92.6886 59.9751V59.3951C88.2186 59.1651 85.4086 58.4151 82.9786 57.7451C79.8586 56.8951 76.6386 56.0051 70.3086 56.0051C63.9786 56.0051 60.7486 56.8851 57.6186 57.7451C54.5386 58.5851 51.3586 59.4551 45.0986 59.4551C43.8286 59.4551 41.3386 59.3351 41.3086 59.3351V59.8951V59.9051Z" fill="#CC9F75"/>
<path d="M41.3086 52.1151C44.0086 51.7551 47.1686 51.5751 50.5786 51.5751C58.3286 51.5751 62.2686 52.4551 66.0686 53.2951C69.9086 54.1451 73.8686 55.0251 81.6786 55.0251C85.8686 55.0251 89.3986 54.7651 92.6886 54.2251V53.6551C89.4586 54.1951 85.8086 54.4551 81.6786 54.4551C73.9286 54.4551 69.9986 53.5851 66.1886 52.7351C62.3486 51.8851 58.3886 51.0051 50.5786 51.0051C47.1486 51.0051 44.0886 51.1851 41.3086 51.5451V52.1051V52.1151Z" fill="#005571"/>
<path d="M41.3086 48.805C41.3986 48.805 44.1486 48.705 45.5986 48.705C53.2486 48.705 57.1286 49.575 60.8886 50.425C64.6786 51.275 68.5886 52.155 76.2986 52.155C84.0086 52.155 87.9186 51.275 91.7086 50.425C91.8686 50.385 92.0386 50.355 92.2186 50.315C92.3686 50.285 92.5486 50.245 92.6886 50.215V49.645C92.5386 49.675 92.3086 49.725 92.1486 49.765C91.9586 49.805 91.7586 49.845 91.5886 49.885C87.8286 50.735 83.9486 51.605 76.2986 51.605C68.6486 51.605 64.7686 50.725 60.9986 49.885C57.2086 49.035 53.2986 48.155 45.5986 48.155C44.1386 48.155 41.3986 48.255 41.3086 48.255V48.815V48.805Z" fill="#005571"/>
<path d="M90.5386 11.015H90.5186C86.6186 10.175 82.5786 9.28503 74.6186 9.28503C66.6586 9.28503 62.6386 10.175 58.7186 11.015C54.8286 11.855 50.8286 12.735 42.9486 12.735H41.3086V13.295H42.9486C50.8886 13.295 54.9286 12.425 58.8486 11.565C62.7286 10.725 66.7386 9.84503 74.6186 9.84503C82.4986 9.84503 86.5186 10.715 90.4086 11.565C91.2686 11.755 92.6886 12.045 92.6886 12.045V11.485C92.6886 11.485 91.2986 11.185 90.5386 11.015Z" fill="#6FCFEB"/>
<path d="M41.3086 39.935C43.6386 39.525 46.2986 39.195 49.0786 38.995C56.8586 38.425 60.8786 38.995 64.7686 39.565C67.5486 39.965 70.3886 40.375 74.6086 40.375C76.3386 40.375 78.2986 40.305 80.5786 40.135C86.5886 39.695 90.2186 38.885 92.6786 38.245V37.665C90.3986 38.265 86.5986 39.125 80.5386 39.575C72.7586 40.145 68.7386 39.575 64.8486 39.005C60.9286 38.435 56.8786 37.855 49.0386 38.425C46.2486 38.625 43.6986 38.945 41.3086 39.365V39.935Z" fill="#005571"/>
<path d="M44.2286 0.595079C52.1086 0.385079 56.1486 1.15508 60.0586 1.89508C63.5386 2.55508 67.1286 3.24508 73.4386 3.24508C74.2486 3.24508 75.1086 3.23508 75.9886 3.20508C83.9386 2.99508 87.9486 2.00508 91.8386 1.05508C91.9586 1.02508 92.6886 0.835079 92.6886 0.835079V0.265079L91.6986 0.525079C87.8386 1.47508 83.8586 2.45508 75.9686 2.65508C75.0786 2.67508 74.2286 2.69508 73.4286 2.69508C67.1786 2.69508 63.6086 2.01508 60.1486 1.35508C56.2186 0.595079 52.1586 -0.174921 44.2086 0.0350788C43.2786 0.0650788 41.3086 0.155079 41.3086 0.155079V0.725079C41.3086 0.725079 43.2886 0.625079 44.2186 0.595079" fill="#6FCFEB"/>
<path d="M88.0984 42.4251C89.6584 42.4251 91.2384 42.4551 92.6884 42.5451V41.9951C91.1884 41.9051 89.6184 41.8551 88.0984 41.8551C80.6284 41.8551 76.8384 42.7251 73.1684 43.5851C72.4684 43.7451 71.5884 43.9451 70.7084 44.1351C68.1684 43.6851 64.4684 43.1351 58.3484 43.1351C52.2284 43.1351 48.5684 43.6651 46.0284 44.1351C45.1684 43.9651 44.3884 43.7751 43.5984 43.5851C42.7284 43.3851 41.9484 43.2251 41.3184 43.0851V43.6651C42.0084 43.8051 42.7684 43.9751 43.4584 44.1351C43.8484 44.2251 44.2384 44.3251 44.6484 44.4051C43.8784 44.5651 41.4784 45.1051 41.3284 45.1351V45.6851C41.4984 45.6551 44.8884 44.9251 46.0384 44.7151C48.7684 45.2951 52.3884 45.8651 58.3984 45.8651C64.4084 45.8651 68.0084 45.2851 70.7384 44.7151C71.9084 44.9351 72.9384 45.1551 74.1884 45.4351C78.0884 46.2751 82.1484 47.1651 90.1184 47.1651C90.9484 47.1651 91.8784 47.1551 92.7084 47.1351V46.5551C91.8784 46.5851 90.9484 46.6051 90.1184 46.6051C82.2084 46.6051 78.1984 45.7351 74.2984 44.8751C73.5384 44.7151 72.8284 44.5651 72.1284 44.4251C72.5184 44.3351 72.9284 44.2351 73.3184 44.1451C76.9484 43.3051 80.7084 42.4251 88.1184 42.4251M58.3984 45.3151C53.1084 45.3151 49.8484 44.8651 47.5884 44.4551C50.8384 43.9451 54.2684 43.7051 58.3684 43.7051C62.4684 43.7051 65.9084 43.9351 69.1784 44.4551C67.0684 44.8451 63.7184 45.3151 58.3984 45.3151Z" fill="#005571"/>
</svg>
