<svg width="90" height="22" viewBox="0 0 90 22" fill="none" xmlns="http://www.w3.org/2000/svg">
<path fill-rule="evenodd" clip-rule="evenodd" d="M89.2239 21.3577C89.284 21.3377 89.3441 21.2508 89.2973 21.1907H89.2907C89.1608 21.1273 89.0104 21.113 88.8574 21.0985C88.6721 21.0809 88.483 21.063 88.322 20.9569C87.4044 20.3022 87.4017 19.0828 87.3992 17.9707C87.3985 17.6415 87.3978 17.3217 87.3733 17.0287V10.8893C87.4936 5.65175 80.2185 3.97493 76.0498 8.29725V0H72.1951V0.360751H74.3529V21.2308H72.1951V21.5916H78.2076V21.2308H76.0498V10.5152C76.0498 8.66468 78.9158 6.44674 80.9867 6.23296C85.2155 5.8054 85.6765 9.62 85.6765 11.2567V18.4116C85.6297 19.7744 86.0439 21.7653 87.7742 21.6584C88.2752 21.6517 88.7562 21.5247 89.2239 21.3577ZM66.5837 17.77C66.5369 19.7675 67.0379 22.0589 69.4697 20.5291C69.4998 20.5166 69.5324 20.4953 69.5654 20.4736C69.6566 20.4136 69.7515 20.3512 69.8104 20.469C67.8997 22.5533 64.8066 21.4911 64.8868 18.879V6.53331H62.081V6.17256H64.8868V3.2398H66.5837V6.17256H70.8726V6.53331H66.5837V17.77ZM58.32 8.88417C58.0728 10.0867 59.2419 10.8282 60.2307 10.3673C60.7584 10.0867 61.3463 8.97769 60.7584 8.02238C60.077 6.88 58.5939 5.63742 56.376 5.63742C54.7994 5.63742 53.2562 6.35224 52.1472 7.43449V6.17186H48.2925V6.53261H50.4503V21.2298H48.2925V21.5906H54.4319V21.2298H52.1472V10.1802C52.1472 7.31424 53.9109 5.98481 56.376 5.98481C57.8524 5.98481 58.781 6.69294 59.1818 7.68166C58.6874 7.92885 58.4135 8.42321 58.32 8.88417ZM24.9146 14.5282C26.9105 15.3493 28.7994 16.1264 29.2726 17.4034L29.2926 17.4168C30.121 19.7015 27.5957 21.6255 24.5093 21.5053C21.7903 21.385 19.4455 19.0201 19.1381 16.6151H18.9845V21.3049H19.1047C19.3185 20.6569 19.9331 20.2226 20.6146 20.5633C21.5365 21.1178 22.8926 21.7324 24.4692 21.826C29.159 22.0999 31.9915 19.4477 30.6688 16.4882C29.8274 14.617 27.5149 13.7329 25.3158 12.8921C22.8356 11.9439 20.4997 11.0509 20.5811 8.859C20.6413 7.25566 22.5786 5.93291 25.0237 6.32707C27.4154 6.70786 29.1857 8.18426 29.5264 10.6494H29.6467V6.36047H29.5264C29.3394 7.00848 28.6579 7.49617 28.0433 7.10201C27.1014 6.50076 25.7853 5.93291 24.7699 5.89951C21.777 5.71245 19.5256 7.28907 19.4655 9.66067C19.3583 12.2421 22.233 13.4248 24.9146 14.5282ZM8.86352 5.892C4.44768 5.892 0.686523 9.34585 0.686523 13.9421C0.686523 18.5383 4.44768 21.9921 8.86352 21.9921C13.2794 21.9921 17.0405 18.5383 17.0405 13.9421C17.0405 9.34585 13.2794 5.892 8.86352 5.892ZM8.86352 6.20599C12.4376 6.23939 15.4038 9.55963 15.3704 13.9421C15.3437 18.3512 12.4309 21.6715 8.91029 21.6381C5.20926 21.6114 2.20301 18.2911 2.32326 13.9421C2.41679 9.4661 5.40968 6.17259 8.86352 6.20599ZM46.8165 12.2821C47.0036 12.2821 47.2441 12.2219 47.2107 11.9681C46.6896 7.68585 43.1756 5.88878 40.5168 5.88878C36.2011 5.88878 32.9276 8.9418 32.9276 13.7919C32.9276 18.642 35.8871 21.8353 40.1694 21.9956C42.9485 22.0891 45.2332 20.7998 46.6829 18.515C46.9368 18.1075 46.87 17.9338 46.7163 17.867C46.5293 17.8069 46.4357 17.9271 46.1952 18.4482C45.6341 19.5238 44.7656 20.419 43.503 20.9468C40.0558 22.49 35.5063 19.9914 34.8917 14.9543C34.7648 14.0391 34.7381 13.1439 34.7982 12.2754H46.8032L46.8165 12.2821ZM40.2295 6.26957C43.1556 6.26957 45.28 8.12008 45.6474 11.9614H34.8316C35.179 8.63449 36.9827 6.26957 40.2295 6.26957Z" fill="#323E48"/>
</svg>
